Simulation
nRows=28
nColumns=15
endheader
time  TH_x TH_y TH_z SC_y  SC_z  SC_x  AC_y  AC_z  AC_x  GH_y  GH_z  GH_yy  EL_x  PS_y
0.0  0.000000  0.000000  0.000000  -40.97484877243665  6.293857566463187  5.290427962726946  44.047279636020875  7.754808296318428  -0.05908065318752276  172.84120459403408  6.674959541529612  -147.4583364695341  22.649528731257192  120.000000
0.05745  0.000000  0.000000  0.000000  -39.269212746753475  5.9037767428877235  3.298240911274584  43.28295043879775  7.7894281934002585  0.16165405206565586  168.7777421919788  3.6670532288306057  -144.37937541177737  22.059756951159308  120.000000
0.1149  0.000000  0.000000  0.000000  -37.69026185222474  5.361875666438518  1.301548447457365  42.60933657416954  7.65161041466796  0.41376135882742887  136.92478643744516  0.9929323797292665  -113.51624519277587  21.655589755985268  120.000000
0.17235  0.000000  0.000000  0.000000  -36.32757657725875  4.7251125835294845  -0.6148505822410714  42.06392863427596  7.40875075011112  0.7093896768212246  20.59584472604106  2.184867393399535  1.7868682205945854  21.512878026185614  120.000000
0.2298  0.000000  0.000000  0.000000  -35.22054976232379  4.062011831160185  -2.3890849688553044  41.66224136153887  7.15412363409289  1.0651975726482596  11.285157632718203  4.884989271940559  10.013554986570071  21.63891293020899  120.000000
0.28725  0.000000  0.000000  0.000000  -34.37830386679853  3.441427119296779  -3.9880384475062938  41.3901607808375  6.987149529900535  1.4948080534896908  8.729925075990925  7.683093314131421  11.399879454678134  21.969347828524114  120.000000
0.3447  0.000000  0.000000  0.000000  -33.8067822514629  2.9273091411660803  -5.380251468371846  41.21941917996568  6.972916697469657  1.985442310822212  7.181087653164791  10.613050764906003  11.667622241698789  22.40519997010473  120.000000
0.40215  0.000000  0.000000  0.000000  -33.51713997773934  2.5635608158076546  -6.52413006383412  41.11881450239536  7.127740042153136  2.498489107652767  5.821430707510271  13.727336347323059  11.610833015642942  22.83550326062393  120.000000
0.4596  0.000000  0.000000  0.000000  -33.51235998680703  2.3771482601062295  -7.3871987012190985  41.06436848640264  7.429187989797214  2.9933453147732454  4.530450946016902  17.059501185558037  11.341833699798318  23.167356834744762  120.000000
0.51705  0.000000  0.000000  0.000000  -33.7800457097206  2.3785764586746443  -7.949250659408662  41.04236275031695  7.825901107408321  3.4399348442639477  3.3348889162636155  20.613073080501618  10.844935622090912  23.339818563119636  120.000000
0.5745  0.000000  0.000000  0.000000  -34.29207331817566  2.568023260513376  -8.202455108636224  41.05402971612816  8.250782638986353  3.8262990986778243  2.296983102785896  24.35873643516082  10.08900166494751  23.332269749868452  120.000000
0.63195  0.000000  0.000000  0.000000  -35.01667643630918  2.9393835724442416  -8.157758705349377  41.11455978945425  8.640659146980022  4.167660904034766  1.4880754419509268  28.241268233294573  9.045066804468352  23.155994868184425  120.000000
0.6894  0.000000  0.000000  0.000000  -35.9265228912953  3.4776897753085247  -7.8613857557996925  41.249788968516334  8.958050733706344  4.510748545019313  0.9762045244757241  32.191590278873704  7.686889859847929  22.840772972450253  120.000000
0.74685  0.000000  0.000000  0.000000  -37.00254510766901  4.153495061196298  -7.371409397527962  41.49039910526055  9.186765084131919  4.905475227568606  0.8058366377727254  36.140388756418396  5.998722650612622  22.422806800609415  120.000000
0.8043  0.000000  0.000000  0.000000  -38.22673908053165  4.932520168801738  -6.729350125448925  41.86225784722309  9.322184031375134  5.378544819651121  0.9832509463990974  40.02318236498371  3.9841879264627478  21.938958620032917  120.000000
0.86175  0.000000  0.000000  0.000000  -39.577802648724905  5.782496338544347  -5.959413978615216  42.37225028697376  9.37744420129986  5.935198169033974  1.470501138860898  43.78316732180259  1.6750414386814059  21.423334531636794  120.000000
0.9192  0.000000  0.000000  0.000000  -41.02224985755696  6.67976998533662  -5.0715405053019325  43.00445402194796  9.38319283910466  6.56236797270776  2.1963745572566378  47.367957982867104  -0.8662586104156191  20.9062844918368  120.000000
0.97665  0.000000  0.000000  0.000000  -42.50721481157229  7.607782086721904  -4.061912490488551  43.720497849841124  9.380597679520552  7.234187503069984  3.072847400064414  50.72363212759501  -3.5461736016936123  20.40968476297235  120.000000
1.0341  0.000000  0.000000  0.000000  -43.96607422656197  8.552419890170029  -2.9181622410469434  44.4607022776959  9.410506069843242  7.916025995432022  4.00953965896281  53.78895281336111  -6.240095602700574  19.94588581977754  120.000000
1.09155  0.000000  0.000000  0.000000  -45.335741008068666  9.505853869398326  -1.6293229290361124  45.15629407491781  9.505635674616718  8.570520091300255  4.930079826079865  56.50302243092727  -8.807959235588413  19.51582716718729  120.000000
1.149  0.000000  0.000000  0.000000  -46.576089753171956  10.46177126012143  -0.19299159498495752  45.743149361283805  9.68419916413075  9.164708509765699  5.782729190115639  58.818151711882166  -11.118085037053952  19.113708270962587  120.000000
1.20645  0.000000  0.000000  0.000000  -47.67749255037196  11.402346236948961  1.3746340770916852  46.17825975279795  9.942483611698105  9.676391392177342  6.544274412502118  60.70518189500762  -13.072711002373522  18.734214169153184  120.000000
1.2639  0.000000  0.000000  0.000000  -48.646974449097065  12.294425672280136  3.0302747078366523  46.44897111793536  10.258596820940074  10.094383183496094  7.216503344583735  62.15579951884088  -14.630231658763174  18.376468984481455  120.000000
1.32135  0.000000  0.000000  0.000000  -49.493082415069395  13.095730675487411  4.702776997583564  46.57176317352333  10.600079086860424  10.41609094295657  7.813385761439699  63.18836518888602  -15.810302196429866  18.04527164996951  120.000000
1.3788  0.000000  0.000000  0.000000  -50.213612086656426  13.762854930313715  6.2952403358980735  46.583803908015085  10.929461134966525  10.641474803699378  8.347092917791523  63.850049270627444  -16.67992310555284  17.749293759140418  120.000000
1.43625  0.000000  0.000000  0.000000  -50.78860483383602  14.257718153203946  7.688654240486047  46.5345632690778  11.206779534469057  10.766824204061654  8.817818617787335  64.21858265785963  -17.325965902617327  17.497978035991927  120.000000
1.4937  0.000000  0.000000  0.000000  -51.178025573927265  14.548938021340406  8.745810243237422  46.47788639602452  11.388959338496443  10.78033280879653  9.206985195606395  64.40381863665144  -17.822980505680633  17.299018272150676  120.000000
1.55115  0.000000  0.000000  0.000000  -51.33510078984522  14.616807428357252  9.333135645251524  46.45842867175963  11.438501021682098  10.669471611616451  9.48672657743754  64.50771374583726  -18.22010475054036  17.15790391934471  120.000000
